<svg width="438" height="221" viewBox="0 0 438 221" fill="none" xmlns="http://www.w3.org/2000/svg">
<g filter="url(#filter0_d_426_800)">
<rect x="13" y="11" width="414" height="198.223" rx="10" fill="url(#paint0_linear_426_800)"/>
<path opacity="0.5" d="M426.487 113.662C399.879 112.809 341.77 112.83 322.2 119.74C297.738 128.378 324.775 140.536 300.313 149.813C275.85 159.091 91.7384 159.091 185.725 209" stroke="white" stroke-width="0.65614"/>
<path opacity="0.5" d="M426.487 119.704C399.879 118.905 341.77 118.925 322.2 125.398C297.738 133.488 324.775 144.875 300.313 153.565C275.85 162.255 91.7384 162.255 185.725 209" stroke="white" stroke-width="0.65614"/>
<path opacity="0.5" d="M426.487 125.747C399.879 125.002 341.77 125.021 322.2 131.055C297.738 138.598 324.775 149.214 300.313 157.316C275.85 165.418 91.7384 165.418 185.725 209" stroke="white" stroke-width="0.65614"/>
<path opacity="0.5" d="M426.487 133.132C399.879 132.453 341.77 132.47 322.2 137.969C297.738 144.843 324.775 154.518 300.313 161.901C275.85 169.284 91.7384 169.284 185.725 209" stroke="white" stroke-width="0.65614"/>
<path opacity="0.5" d="M426.487 138.839C399.879 138.211 341.77 138.227 322.2 143.312C297.738 149.669 324.775 158.616 300.313 165.444C275.85 172.271 91.7384 172.271 185.725 209" stroke="white" stroke-width="0.65614"/>
<path opacity="0.5" d="M426.487 144.882C399.879 144.308 341.77 144.322 322.2 148.97C297.738 154.779 324.775 162.955 300.313 169.195C275.85 175.435 91.7384 175.435 185.725 209" stroke="white" stroke-width="0.65614"/>
<path opacity="0.5" d="M426.487 150.924C399.879 150.404 341.77 150.417 322.2 154.627C297.738 159.889 324.775 167.294 300.313 172.946C275.85 178.598 91.7384 178.598 185.725 209" stroke="white" stroke-width="0.65614"/>
<path opacity="0.5" d="M426.487 157.638C399.879 157.179 341.77 157.19 322.2 160.913C297.738 165.567 324.775 172.116 300.313 177.114C275.85 182.113 91.7384 182.113 185.725 209" stroke="white" stroke-width="0.65614"/>
<g opacity="0.3">
<path opacity="0.5" d="M12 116.249C21.9703 117.164 43.7441 117.141 51.077 109.73C60.2432 100.467 50.1122 87.4292 59.2784 77.4795C68.4446 67.5299 137.432 67.5299 102.215 14.0076" stroke="white" stroke-width="0.65614"/>
<path opacity="0.5" d="M12 109.769C21.9703 110.626 43.7441 110.604 51.077 103.663C60.2432 94.9868 50.1122 82.7757 59.2784 73.4566C68.4446 64.1376 137.432 64.1376 102.215 14.0076" stroke="white" stroke-width="0.65614"/>
<path opacity="0.5" d="M12 103.289C21.9703 104.088 43.7441 104.068 51.077 97.5963C60.2432 89.5071 50.1122 78.1223 59.2784 69.4338C68.4446 60.7454 137.432 60.7454 102.215 14.0077" stroke="white" stroke-width="0.65614"/>
<path opacity="0.5" d="M12 95.3686C21.9703 96.0967 43.7441 96.0785 51.077 90.1812C60.2432 82.8095 50.1122 72.4346 59.2784 64.517C68.4446 56.5993 137.432 56.5993 102.215 14.0076" stroke="white" stroke-width="0.65614"/>
<path opacity="0.5" d="M12 89.2485C21.9703 89.9218 43.7441 89.905 51.077 84.4513C60.2432 77.6341 50.1122 68.0397 59.2784 60.7176C68.4446 53.3955 137.432 53.3955 102.215 14.0076" stroke="white" stroke-width="0.65614"/>
<path opacity="0.5" d="M12 82.7684C21.9703 83.3837 43.7441 83.3683 51.077 78.3843C60.2432 72.1543 50.1122 63.3861 59.2784 56.6947C68.4446 50.0032 137.432 50.0032 102.215 14.0076" stroke="white" stroke-width="0.65614"/>
<path opacity="0.5" d="M12 76.2883C21.9703 76.8456 43.7441 76.8317 51.077 72.3174C60.2432 66.6745 50.1122 58.7326 59.2784 52.6717C68.4446 46.6109 137.432 46.6109 102.215 14.0075" stroke="white" stroke-width="0.65614"/>
<path opacity="0.5" d="M12 69.0884C21.9703 69.5813 43.7441 69.569 51.077 65.5765C60.2432 60.586 50.1122 53.5623 59.2784 48.2021C68.4446 42.8419 137.432 42.8419 102.215 14.0077" stroke="white" stroke-width="0.65614"/>
</g>
</g>
<defs>
<filter id="filter0_d_426_800" x="0.969971" y="0" width="437.03" height="220.316" filterUnits="userSpaceOnUse" color-interpolation-filters="sRGB">
<feFlood flood-opacity="0" result="BackgroundImageFix"/>
<feColorMatrix in="SourceAlpha" type="matrix" values="0 0 0 0 0 0 0 0 0 0 0 0 0 0 0 0 0 0 127 0" result="hardAlpha"/>
<feOffset/>
<feGaussianBlur stdDeviation="5.5"/>
<feComposite in2="hardAlpha" operator="out"/>
<feColorMatrix type="matrix" values="0 0 0 0 0.0705882 0 0 0 0 0.364706 0 0 0 0 0.576471 0 0 0 0.1 0"/>
<feBlend mode="normal" in2="BackgroundImageFix" result="effect1_dropShadow_426_800"/>
<feBlend mode="normal" in="SourceGraphic" in2="effect1_dropShadow_426_800" result="shape"/>
</filter>
<linearGradient id="paint0_linear_426_800" x1="13" y1="209.223" x2="154.39" y2="-88.2449" gradientUnits="userSpaceOnUse">
<stop stop-color="#1A7EBA"/>
<stop offset="0.548152" stop-color="#5DC0D8"/>
<stop offset="1" stop-color="#1980BA"/>
</linearGradient>
</defs>
</svg>
