<svg width="194" height="64" viewBox="0 0 194 64" fill="none" xmlns="http://www.w3.org/2000/svg">
<g clip-path="url(#clip0_267_18903)">
<path d="M187.716 38.9327L193.07 42.4836C191.333 45.0299 187.176 49.3986 179.991 49.3986C171.067 49.3986 164.422 42.5305 164.422 33.7934C164.422 24.496 171.138 18.1885 179.239 18.1885C187.387 18.1885 191.379 24.6359 192.671 28.1166L193.376 29.8922L172.383 38.5356C173.979 41.6661 176.469 43.2546 179.991 43.2546C183.513 43.2546 185.955 41.5259 187.716 38.9327ZM171.255 33.3032L185.274 27.5095C184.499 25.5707 182.198 24.1926 179.45 24.1926C175.952 24.1926 171.091 27.2762 171.255 33.3032Z" fill="#FF302F"/>
<path d="M154.302 2.27967H161.064V47.9734H154.302V2.2793V2.27967Z" fill="#20B15A"/>
<path d="M143.641 19.4029H150.169V47.1555C150.169 58.6722 143.335 63.4144 135.257 63.4144C127.649 63.4144 123.07 58.3219 121.356 54.1872L127.344 51.7107C128.424 54.2569 131.03 57.2708 135.257 57.2708C140.447 57.2708 143.641 54.0702 143.641 48.09V45.8475H143.406C141.856 47.7162 138.897 49.398 135.14 49.398C127.297 49.398 120.111 42.6 120.111 33.84C120.111 25.0328 127.297 18.165 135.14 18.165C138.874 18.165 141.856 19.8237 143.406 21.6458H143.641V19.4033V19.4029ZM144.11 33.84C144.11 28.3268 140.423 24.3087 135.727 24.3087C130.983 24.3087 126.991 28.3268 126.991 33.84C126.991 39.2828 130.983 43.2308 135.727 43.2308C140.424 43.2544 144.11 39.2828 144.11 33.84H144.11Z" fill="#3686F7"/>
<path d="M82.9853 33.7228C82.9853 42.7168 75.9408 49.3277 67.2992 49.3277C58.6579 49.3277 51.613 42.6936 51.613 33.7228C51.613 24.6823 58.6579 18.0947 67.2992 18.0947C75.9408 18.0947 82.9853 24.6823 82.9853 33.7228ZM76.1286 33.7228C76.1286 28.1166 72.0424 24.2616 67.2992 24.2616C62.556 24.2616 58.4698 28.1166 58.4698 33.7228C58.4698 39.2826 62.556 43.1841 67.2992 43.1841C72.0428 43.1841 76.1286 39.2826 76.1286 33.7228Z" fill="#FF302F"/>
<path d="M117.246 33.7934C117.246 42.7874 110.201 49.3982 101.56 49.3982C92.9185 49.3982 85.874 42.787 85.874 33.7934C85.874 24.7529 92.9185 18.1885 101.56 18.1885C110.201 18.1885 117.246 24.7296 117.246 33.7934ZM110.366 33.7934C110.366 28.1871 106.28 24.3321 101.536 24.3321C96.7932 24.3321 92.7071 28.1871 92.7071 33.7934C92.7071 39.3531 96.7932 43.2546 101.536 43.2546C106.303 43.2546 110.366 39.3299 110.366 33.7934Z" fill="#FFBA40"/>
<path d="M25.8292 42.5536C15.9899 42.5536 8.28802 34.6576 8.28802 24.8693C8.28802 15.0815 15.9899 7.18547 25.8292 7.18547C31.1363 7.18547 35.0106 9.26447 37.8755 11.9277L42.5957 7.23235C38.6037 3.42459 33.2732 0.527344 25.8292 0.527344C12.3504 0.527719 1.0083 11.4608 1.0083 24.8693C1.0083 38.2786 12.3504 49.2114 25.8292 49.2114C33.1089 49.2114 38.6037 46.8286 42.901 42.3901C47.3155 37.9981 48.6774 31.8309 48.6774 26.8317C48.6774 25.2665 48.4897 23.6547 48.2782 22.4634H25.8292V28.9576H41.8206C41.351 33.0226 40.0595 35.8025 38.1574 37.6944C35.8561 40.0074 32.2166 42.5536 25.8292 42.5536Z" fill="#3686F7"/>
</g>
<defs>
<clipPath id="clip0_267_18903">
<rect width="193" height="63" fill="white" transform="translate(0.728027 0.430664)"/>
</clipPath>
</defs>
</svg>
