<svg width="498" height="128" viewBox="0 0 498 128" fill="none" xmlns="http://www.w3.org/2000/svg">
<path d="M22.2182 73.7798V109.078H98.749V80.4516H75.9932C74.1276 84.6676 70.9973 87.8507 66.2332 89.1366C63.1344 89.9692 60.0673 89.7795 57.0845 88.5569C51.024 86.08 47.5247 79.9457 48.389 73.3477C49.19 67.1502 54.1965 61.9961 60.2676 61.1845C67.2766 60.2465 73.6533 63.7458 76.3832 71.3662H116.909C117.363 73.0842 117.521 124.087 117.12 127.618H4.13157C3.66781 126.227 3.49917 76.7943 3.98401 73.7798H22.2182ZM64.1779 77.7218C64.1779 75.7719 62.4704 74.0433 60.5311 74.0328C58.5812 74.0222 56.9264 75.6981 56.9264 77.7112C56.9264 79.7876 58.4863 81.3897 60.51 81.3897C62.4704 81.3897 64.1779 79.6928 64.1779 77.7323V77.7218Z" fill="#1EA74A"/>
<path d="M146.242 45.1112H162.516C171.433 63.0292 180.392 81.0315 189.541 99.4448C198.605 81.1474 207.48 63.2084 216.418 45.185H232.481C232.965 46.5973 233.124 124.34 232.628 127.228H219.97V67.2873C219.79 67.2452 219.622 67.2136 219.443 67.1714C210.99 84.3727 202.536 101.574 194.073 118.775H184.882C176.471 101.669 168.05 84.5308 159.628 67.3927C159.46 67.4244 159.291 67.4665 159.122 67.4981V127.249H146.401C146.337 127.197 146.274 127.154 146.221 127.102C146.179 127.049 146.116 126.996 146.116 126.933C146.063 126.585 146 126.237 146 125.89C146 99.2235 146 72.5573 146.021 45.8912C146.021 45.6909 146.126 45.5012 146.242 45.1112Z" fill="#14385C"/>
<path d="M384.878 82.0961C379.724 97.1156 374.57 112.146 369.395 127.249H355.314C347.714 106.644 340.083 85.9432 332.357 65.0002H346.407C351.698 81.0105 357 97.0207 362.291 113.031C362.407 113.031 362.512 113.041 362.628 113.052C367.761 97.0734 372.884 81.1053 378.059 65.0002H392.298C397.431 80.8524 402.596 96.8204 407.929 113.305C409.668 109.005 410.764 104.978 412.071 101.047C413.41 97.0312 414.717 92.9944 416.034 88.9681C417.331 85.0051 418.617 81.0421 419.903 77.079C421.21 73.0528 422.516 69.037 423.845 64.9475H437.778C430.169 85.8061 422.622 106.475 415.054 127.228H400.867C395.64 112.209 390.559 97.0734 385.3 81.9907C385.152 82.0223 385.015 82.0539 384.868 82.0961H384.878Z" fill="#14385C"/>
<path d="M0 60.5311C1.54938 59.0872 3.11984 57.6643 4.63759 56.1781C7.55717 53.3007 10.403 50.339 13.3752 47.5037C14.5346 46.397 15.0616 45.2692 15.0195 43.6355C14.9035 39.0401 14.9773 34.4341 14.9879 29.8387C14.9879 29.1431 15.0511 28.458 15.0933 27.5199C15.9786 27.5199 16.7375 27.5199 17.4964 27.5199C22.0918 27.5199 26.6978 27.4672 31.2932 27.5515C32.7688 27.5831 33.7912 27.0878 34.8136 26.0654C42.8872 17.9285 51.0135 9.84435 59.0977 1.71802C59.6458 1.16994 60.0041 0.453219 60.3203 0C80.9155 20.5951 101.142 40.8214 121.41 61.0792C120.957 61.1108 120.356 61.1846 119.755 61.1846C112.462 61.1846 105.179 61.153 97.8849 61.2268C96.483 61.2373 95.5344 60.7736 94.5648 59.8039C83.9299 49.1269 73.2424 38.492 62.5864 27.8361C62.0911 27.3407 61.68 26.7399 61.0792 26.0021C60.3098 26.7189 59.7512 27.2142 59.2242 27.7307C48.6104 38.3339 37.9861 48.9161 27.425 59.572C26.2235 60.7841 25.0219 61.2373 23.3461 61.2162C16.337 61.1319 9.33843 61.1846 2.32934 61.1846H0.29512C0.20026 60.9633 0.0948599 60.7419 0 60.5206V60.5311Z" fill="#1EA74A"/>
<path d="M497.719 127.249H484.587V120.451C484.102 120.662 483.828 120.715 483.67 120.873C479.654 125.068 474.563 127.028 468.956 127.681C464.16 128.24 459.354 128.187 454.706 126.512C444.482 122.823 439.971 113.263 442.637 102.965C443.839 98.3381 446.885 95.0496 451.069 92.8152C455.349 90.528 459.986 89.6953 464.782 89.6426C470.653 89.5794 476.524 89.6321 482.405 89.6321C482.963 89.6321 483.522 89.6321 484.039 89.6321C485.261 84.9523 482.826 79.6086 478.516 77.3425C476.418 76.2463 474.152 75.7404 471.802 75.5507C465.594 75.0764 459.902 76.6784 454.537 79.6929C453.43 80.3147 452.345 80.9577 451.048 81.7166C449.193 78.5756 447.38 75.498 445.494 72.2833C450.226 69.3848 454.959 66.8868 460.25 65.6747C467.364 64.041 474.531 63.7564 481.688 65.4217C486.052 66.4441 489.899 68.4889 492.871 71.9249C495.907 75.4242 497.361 79.5769 497.656 84.1408C497.814 86.5333 497.762 88.947 497.772 91.3501C497.814 103.092 497.856 114.833 497.888 126.575C497.888 126.712 497.825 126.849 497.719 127.239V127.249ZM484.133 99.8453C483.828 99.7926 483.49 99.6978 483.153 99.6978C477.008 99.7083 470.853 99.6978 464.708 99.7926C463.317 99.8137 461.905 100.109 460.545 100.457C455.18 101.827 453.968 106.201 455.148 110.48C456.171 114.19 459.059 115.919 462.537 116.688C467.459 117.763 472.286 117.184 476.787 114.939C483.206 111.734 485.272 107.086 484.144 99.8453H484.133Z" fill="#14385C"/>
<path d="M279.426 119.007C281.038 115.771 282.609 112.63 284.232 109.384C284.738 109.711 285.096 109.921 285.423 110.164C290.999 114.39 297.333 116.551 304.269 117.025C306.682 117.184 309.075 116.92 311.341 115.982C316.073 114 316.864 108.53 312.732 105.474C311.12 104.283 309.18 103.439 307.272 102.744C303.889 101.511 300.4 100.594 297.007 99.3921C294.888 98.6437 292.78 97.7584 290.82 96.6622C284.664 93.2262 282.177 87.7981 282.651 80.8944C283.115 74.1804 286.625 69.5533 292.611 66.7497C297.323 64.5363 302.361 63.9145 307.504 64.178C313.649 64.4836 319.52 65.9065 324.969 68.8472C325.823 69.3109 326.645 69.859 327.667 70.4914C325.991 73.8958 324.379 77.1527 322.703 80.5571C321.976 80.1882 321.364 79.8931 320.764 79.5769C315.42 76.8154 309.823 74.9287 303.731 75.1712C302.139 75.2344 300.464 75.5295 298.999 76.1408C294.951 77.8167 294.308 82.7283 297.797 85.3844C299.23 86.47 300.959 87.2711 302.656 87.8929C306.113 89.1366 309.697 90.022 313.122 91.3079C315.947 92.3724 318.772 93.5951 321.343 95.1444C331.304 101.163 330.713 116.256 322.524 122.475C319.046 125.11 315.125 126.627 310.888 127.281C302.34 128.598 294.129 127.365 286.319 123.645C283.832 122.454 281.513 120.988 279.436 119.007H279.426Z" fill="#14385C"/>
<path d="M266.999 64.8527V127.27C264.838 127.429 262.667 127.323 260.506 127.344C258.314 127.365 256.132 127.344 253.971 127.344C253.476 125.742 253.276 69.6273 253.74 64.9581C258.103 64.7051 262.498 64.8632 266.999 64.8527Z" fill="#14385C"/>
<path d="M252.57 47.0294C252.57 42.2337 255.774 38.9452 260.443 38.9452C265.07 38.9452 268.369 42.2969 268.38 47.0083C268.39 51.6564 264.996 55.1452 260.464 55.1557C255.9 55.1557 252.559 51.7302 252.57 47.0399V47.0294Z" fill="#14385C"/>
<path d="M22.2182 73.7798V109.078H98.749V80.4516H75.9932C74.1276 84.6676 70.9973 87.8507 66.2332 89.1366C63.1344 89.9692 60.0673 89.7795 57.0845 88.5569C51.024 86.08 47.5247 79.9457 48.389 73.3477C49.19 67.1502 54.1965 61.9961 60.2676 61.1845C67.2766 60.2465 73.6533 63.7458 76.3832 71.3662H116.909C117.363 73.0842 117.521 124.087 117.12 127.618H4.13157C3.66781 126.227 3.49917 76.7943 3.98401 73.7798H22.2182ZM64.1779 77.7218C64.1779 75.7719 62.4704 74.0433 60.5311 74.0328C58.5812 74.0222 56.9264 75.6981 56.9264 77.7112C56.9264 79.7876 58.4863 81.3897 60.51 81.3897C62.4704 81.3897 64.1779 79.6928 64.1779 77.7323V77.7218Z" fill="#1EA74A"/>
<path d="M146.242 45.1112H162.516C171.433 63.0292 180.392 81.0315 189.541 99.4448C198.605 81.1474 207.48 63.2084 216.418 45.185H232.481C232.965 46.5973 233.124 124.34 232.628 127.228H219.97V67.2873C219.79 67.2452 219.622 67.2136 219.443 67.1714C210.99 84.3727 202.536 101.574 194.073 118.775H184.882C176.471 101.669 168.05 84.5308 159.628 67.3927C159.46 67.4244 159.291 67.4665 159.122 67.4981V127.249H146.401C146.337 127.197 146.274 127.154 146.221 127.102C146.179 127.049 146.116 126.996 146.116 126.933C146.063 126.585 146 126.237 146 125.89C146 99.2235 146 72.5573 146.021 45.8912C146.021 45.6909 146.126 45.5012 146.242 45.1112Z" fill="#14385C"/>
<path d="M384.878 82.0961C379.724 97.1156 374.57 112.146 369.395 127.249H355.314C347.714 106.644 340.083 85.9432 332.357 65.0002H346.407C351.698 81.0105 357 97.0207 362.291 113.031C362.407 113.031 362.512 113.041 362.628 113.052C367.761 97.0734 372.884 81.1053 378.059 65.0002H392.298C397.431 80.8524 402.596 96.8204 407.929 113.305C409.668 109.005 410.764 104.978 412.071 101.047C413.41 97.0312 414.717 92.9944 416.034 88.9681C417.331 85.0051 418.617 81.0421 419.903 77.079C421.21 73.0528 422.516 69.037 423.845 64.9475H437.778C430.169 85.8061 422.622 106.475 415.054 127.228H400.867C395.64 112.209 390.559 97.0734 385.3 81.9907C385.152 82.0223 385.015 82.0539 384.868 82.0961H384.878Z" fill="#14385C"/>
<path d="M0 60.5311C1.54938 59.0872 3.11984 57.6643 4.63759 56.1781C7.55717 53.3007 10.403 50.339 13.3752 47.5037C14.5346 46.397 15.0616 45.2692 15.0195 43.6355C14.9035 39.0401 14.9773 34.4341 14.9879 29.8387C14.9879 29.1431 15.0511 28.458 15.0933 27.5199C15.9786 27.5199 16.7375 27.5199 17.4964 27.5199C22.0918 27.5199 26.6978 27.4672 31.2932 27.5515C32.7688 27.5831 33.7912 27.0878 34.8136 26.0654C42.8872 17.9285 51.0135 9.84435 59.0977 1.71802C59.6458 1.16994 60.0041 0.453219 60.3203 0C80.9155 20.5951 101.142 40.8214 121.41 61.0792C120.957 61.1108 120.356 61.1846 119.755 61.1846C112.462 61.1846 105.179 61.153 97.8849 61.2268C96.483 61.2373 95.5344 60.7736 94.5648 59.8039C83.9299 49.1269 73.2424 38.492 62.5864 27.8361C62.0911 27.3407 61.68 26.7399 61.0792 26.0021C60.3098 26.7189 59.7512 27.2142 59.2242 27.7307C48.6104 38.3339 37.9861 48.9161 27.425 59.572C26.2235 60.7841 25.0219 61.2373 23.3461 61.2162C16.337 61.1319 9.33843 61.1846 2.32934 61.1846H0.29512C0.20026 60.9633 0.0948599 60.7419 0 60.5206V60.5311Z" fill="#1EA74A"/>
<path d="M497.719 127.249H484.587V120.451C484.102 120.662 483.828 120.715 483.67 120.873C479.654 125.068 474.563 127.028 468.956 127.681C464.16 128.24 459.354 128.187 454.706 126.512C444.482 122.823 439.971 113.263 442.637 102.965C443.839 98.3381 446.885 95.0496 451.069 92.8152C455.349 90.528 459.986 89.6953 464.782 89.6426C470.653 89.5794 476.524 89.6321 482.405 89.6321C482.963 89.6321 483.522 89.6321 484.039 89.6321C485.261 84.9523 482.826 79.6086 478.516 77.3425C476.418 76.2463 474.152 75.7404 471.802 75.5507C465.594 75.0764 459.902 76.6784 454.537 79.6929C453.43 80.3147 452.345 80.9577 451.048 81.7166C449.193 78.5756 447.38 75.498 445.494 72.2833C450.226 69.3848 454.959 66.8868 460.25 65.6747C467.364 64.041 474.531 63.7564 481.688 65.4217C486.052 66.4441 489.899 68.4889 492.871 71.9249C495.907 75.4242 497.361 79.5769 497.656 84.1408C497.814 86.5333 497.762 88.947 497.772 91.3501C497.814 103.092 497.856 114.833 497.888 126.575C497.888 126.712 497.825 126.849 497.719 127.239V127.249ZM484.133 99.8453C483.828 99.7926 483.49 99.6978 483.153 99.6978C477.008 99.7083 470.853 99.6978 464.708 99.7926C463.317 99.8137 461.905 100.109 460.545 100.457C455.18 101.827 453.968 106.201 455.148 110.48C456.171 114.19 459.059 115.919 462.537 116.688C467.459 117.763 472.286 117.184 476.787 114.939C483.206 111.734 485.272 107.086 484.144 99.8453H484.133Z" fill="#14385C"/>
<path d="M279.426 119.007C281.038 115.771 282.609 112.63 284.232 109.384C284.738 109.711 285.096 109.921 285.423 110.164C290.999 114.39 297.333 116.551 304.269 117.025C306.682 117.184 309.075 116.92 311.341 115.982C316.073 114 316.864 108.53 312.732 105.474C311.12 104.283 309.18 103.439 307.272 102.744C303.889 101.511 300.4 100.594 297.007 99.3921C294.888 98.6437 292.78 97.7584 290.82 96.6622C284.664 93.2262 282.177 87.7981 282.651 80.8944C283.115 74.1804 286.625 69.5533 292.611 66.7497C297.323 64.5363 302.361 63.9145 307.504 64.178C313.649 64.4836 319.52 65.9065 324.969 68.8472C325.823 69.3109 326.645 69.859 327.667 70.4914C325.991 73.8958 324.379 77.1527 322.703 80.5571C321.976 80.1882 321.364 79.8931 320.764 79.5769C315.42 76.8154 309.823 74.9287 303.731 75.1712C302.139 75.2344 300.464 75.5295 298.999 76.1408C294.951 77.8167 294.308 82.7283 297.797 85.3844C299.23 86.47 300.959 87.2711 302.656 87.8929C306.113 89.1366 309.697 90.022 313.122 91.3079C315.947 92.3724 318.772 93.5951 321.343 95.1444C331.304 101.163 330.713 116.256 322.524 122.475C319.046 125.11 315.125 126.627 310.888 127.281C302.34 128.598 294.129 127.365 286.319 123.645C283.832 122.454 281.513 120.988 279.436 119.007H279.426Z" fill="#14385C"/>
<path d="M266.999 64.8527V127.27C264.838 127.429 262.667 127.323 260.506 127.344C258.314 127.365 256.132 127.344 253.971 127.344C253.476 125.742 253.276 69.6273 253.74 64.9581C258.103 64.7051 262.498 64.8632 266.999 64.8527Z" fill="#14385C"/>
<path d="M252.57 47.0294C252.57 42.2337 255.774 38.9452 260.443 38.9452C265.07 38.9452 268.369 42.2969 268.38 47.0083C268.39 51.6564 264.996 55.1452 260.464 55.1557C255.9 55.1557 252.559 51.7302 252.57 47.0399V47.0294Z" fill="#14385C"/>
</svg>
